<?xml version="1.0" encoding="UTF-8" standalone="no"?>
<!-- Created with Inkscape (http://www.inkscape.org/) -->

<svg
   xmlns:dc="http://purl.org/dc/elements/1.1/"
   xmlns:cc="http://creativecommons.org/ns#"
   xmlns:rdf="http://www.w3.org/1999/02/22-rdf-syntax-ns#"
   xmlns:svg="http://www.w3.org/2000/svg"
   xmlns="http://www.w3.org/2000/svg"
   xmlns:sodipodi="http://sodipodi.sourceforge.net/DTD/sodipodi-0.dtd"
   xmlns:inkscape="http://www.inkscape.org/namespaces/inkscape"
   width="120.87159mm"
   height="120.87146mm"
   viewBox="0 0 428.28516 428.2847"
   id="svg4149"
   version="1.1"
   inkscape:version="0.91 r13725"
   sodipodi:docname="IASPEI.svg"
   inkscape:export-filename="/home/gergo/backup/IASPEI.png"
   inkscape:export-xdpi="187.65553"
   inkscape:export-ydpi="187.65553">
  <defs
     id="defs4151" />
  <sodipodi:namedview
     id="base"
     pagecolor="#ffffff"
     bordercolor="#666666"
     borderopacity="1.0"
     inkscape:pageopacity="0"
     inkscape:pageshadow="2"
     inkscape:zoom="1"
     inkscape:cx="503.85839"
     inkscape:cy="306.85279"
     inkscape:document-units="px"
     inkscape:current-layer="layer6"
     showgrid="true"
     inkscape:snap-intersection-paths="false"
     inkscape:snap-page="true"
     inkscape:window-width="1920"
     inkscape:window-height="1135"
     inkscape:window-x="0"
     inkscape:window-y="0"
     inkscape:window-maximized="1"
     borderlayer="false"
     inkscape:showpageshadow="true"
     showborder="true"
     inkscape:snap-grids="false"
     inkscape:snap-others="false"
     inkscape:snap-nodes="false"
     inkscape:snap-global="false"
     inkscape:snap-bbox="false"
     fit-margin-top="0"
     fit-margin-left="0"
     fit-margin-right="0"
     fit-margin-bottom="0" />
  <metadata
     id="metadata4154">
    <rdf:RDF>
      <cc:Work
         rdf:about="">
        <dc:format>image/svg+xml</dc:format>
        <dc:type
           rdf:resource="http://purl.org/dc/dcmitype/StillImage" />
        <dc:title></dc:title>
      </cc:Work>
    </rdf:RDF>
  </metadata>
  <g
     inkscape:groupmode="layer"
     id="layer3"
     inkscape:label="green"
     style="display:inline"
     sodipodi:insensitive="true"
     transform="translate(-136.14215,-305.84416)">
    <path
       style="opacity:1;fill:#00ff01;fill-opacity:1;stroke:none;stroke-width:0.35714287;stroke-miterlimit:4;stroke-dasharray:none;stroke-opacity:1"
       d="m 136.76831,512.6282 c 0.0994,-0.93874 0.27748,-3.72798 0.39554,-6.19832 0.58946,-12.3344 3.33628,-28.96678 7.00233,-42.40011 13.14173,-48.15459 42.96433,-90.46772 84.03382,-119.2295 31.69322,-22.19541 68.78894,-35.37012 107.36725,-38.13197 5.44277,-0.38965 17.33565,-0.59871 17.62464,-0.30981 0.0976,0.0977 -0.56681,1.77886 -1.47664,3.73607 -7.29081,15.68374 -16.55558,39.3737 -22.64593,57.90553 -2.75721,8.3897 -3.9171,10.88169 -10.495,22.54812 -17.07127,30.27729 -37.69757,54.94563 -62.08587,74.25258 -27.4575,21.73668 -60.79187,37.10093 -98.8485,45.56056 -5.78208,1.28531 -19.78488,3.97364 -20.69762,3.97364 -0.20916,0 -0.28062,-0.70095 -0.17402,-1.70679 z"
       id="path4756"
       inkscape:connector-curvature="0" />
    <path
       style="opacity:1;fill:#00ff01;fill-opacity:1;stroke:none;stroke-width:0.35714287;stroke-miterlimit:4;stroke-dasharray:none;stroke-opacity:1"
       d="m 325.41768,544.67297 c 0.005,-13.42487 1.12681,-38.56189 2.35881,-52.8621 2.63009,-30.52806 7.74383,-56.86492 15.66713,-80.68901 2.43045,-7.30795 7.0042,-19.36284 7.5582,-19.92093 0.15778,-0.15894 2.29998,-0.0302 4.76043,0.28619 66.81292,8.5903 105.09751,39.90267 119.57947,97.80222 2.45167,9.80185 4.63819,22.95346 5.56962,33.50034 0.2187,2.4765 0.47814,5.24733 0.57652,6.15739 l 0.17889,1.65465 -6.7706,2.01717 c -41.48231,12.35887 -87.9832,18.60047 -138.74613,18.62325 l -10.73485,0.005 0.002,-6.574 z"
       id="path4758"
       inkscape:connector-curvature="0" />
  </g>
  <g
     inkscape:groupmode="layer"
     id="layer6"
     inkscape:label="white"
     style="display:inline;opacity:1"
     sodipodi:insensitive="true"
     transform="translate(-136.14215,-305.84416)">
    <path
       style="opacity:1;fill:#f5f5f5;fill-opacity:1;stroke:none;stroke-width:3;stroke-linejoin:miter;stroke-miterlimit:4;stroke-dasharray:none;stroke-dashoffset:0;stroke-opacity:1"
       d="m 334.14515,567.25091 c -10.77154,-0.6099 -26.67572,-2.14388 -27.15056,-2.61871 -0.10119,-0.1012 -0.30708,-1.81631 -0.45754,-3.81138 -1.57905,-20.93787 -1.48772,-48.95139 0.23314,-71.50963 3.85682,-50.55796 16.20108,-102.3023 36.56016,-153.25189 2.20486,-5.51778 8.5626,-20.44252 10.58603,-24.85063 l 1.09546,-2.38649 2.38899,0 c 6.74646,0 20.00822,1.2214 29.04544,2.67507 37.25611,5.99277 70.20285,21.01116 99.55006,45.37873 6.43664,5.34447 19.82492,18.64516 25.1818,25.01705 28.05475,33.37049 44.99898,72.7399 49.42728,114.84278 0.30678,2.91682 0.65136,10.0936 0.76574,15.94842 l 0.20795,10.64511 -2.96638,1.14601 c -23.37198,9.02935 -51.39589,18.30765 -73.3235,24.2763 -36.49027,9.93259 -69.14185,15.57811 -105.18213,18.18618 -6.97927,0.50506 -38.74927,0.72146 -45.96194,0.31308 z m 31.8198,-16.22856 c 35.10677,-2.0047 64.19472,-6.19709 92.06553,-13.26922 7.46789,-1.89495 22.82837,-6.27885 23.53904,-6.71808 0.25178,-0.1556 -0.13497,-5.53141 -0.89058,-12.37893 -5.70737,-51.72154 -24.47867,-85.75611 -58.66555,-106.36752 -17.4669,-10.53087 -39.37929,-17.53163 -65.40292,-20.89551 -6.16048,-0.79632 -5.60427,-0.97243 -6.92782,2.19352 -9.47725,22.66973 -16.40776,49.88921 -20.11845,79.01493 -2.50541,19.66522 -3.65052,37.81313 -4.44296,70.41247 l -0.21395,8.80154 17.25846,-0.20985 c 9.49216,-0.11542 20.2018,-0.37793 23.7992,-0.58335 z"
       id="path5581"
       inkscape:connector-curvature="0" />
    <path
       style="opacity:1;fill:#f5f5f5;fill-opacity:1;stroke:none;stroke-width:3;stroke-linejoin:miter;stroke-miterlimit:4;stroke-dasharray:none;stroke-dashoffset:0;stroke-opacity:1"
       d="m 296.15635,565.77541 c -47.85466,-6.55014 -92.53212,-19.97596 -140.08342,-42.0958 -7.38664,-3.4361 -18.41658,-8.97094 -18.41658,-9.24146 0,-0.12076 1.09688,-0.41178 2.4375,-0.64672 21.55632,-3.77766 40.82281,-9.01147 57.85559,-15.71668 42.11297,-16.5784 75.55208,-42.51788 102.69799,-79.6652 7.37878,-10.09736 17.95599,-27.19251 22.85418,-36.9375 0.50106,-0.99687 1.03523,-1.8125 1.18703,-1.8125 0.35191,0 0.29465,0.25008 -1.23053,5.375 -11.45322,38.48505 -18.03363,76.71333 -20.31189,118 -0.8854,16.04512 -0.43594,46.62803 0.90841,61.8125 l 0.16047,1.8125 -0.96688,-0.0229 c -0.53178,-0.0126 -3.72312,-0.40017 -7.09187,-0.86127 z"
       id="path5583"
       inkscape:connector-curvature="0" />
    <path
       style="opacity:1;fill:#f5f5f5;fill-opacity:1;stroke:none;stroke-width:3;stroke-linejoin:miter;stroke-miterlimit:4;stroke-dasharray:none;stroke-dashoffset:0;stroke-opacity:1"
       d="m 344.04892,730.72205 c -4.79286,-12.34685 -9.68338,-25.88632 -12.84534,-35.5625 -11.69302,-35.78277 -19.57177,-70.62152 -23.91526,-105.75 -0.89675,-7.25253 -2.13197,-19.3924 -2.13197,-20.95316 0,-0.85436 0.007,-0.85964 0.9375,-0.71228 1.79405,0.28412 14.72578,1.40469 20.5625,1.78181 25.68997,1.65985 51.02368,1.00129 77.5,-2.01466 48.45023,-5.51902 98.10982,-18.31109 153.6535,-39.58041 2.90318,-1.11172 5.36753,-2.0213 5.47633,-2.0213 0.25102,0 -0.0247,6.55093 -0.51583,12.25 -5.26307,61.08723 -36.11557,116.40316 -85.364,153.05047 -36.45138,27.12462 -80.87188,41.94052 -125.76811,41.94837 l -6.64312,10e-4 -0.9462,-2.4375 0,-9e-5 z"
       id="path5585"
       inkscape:connector-curvature="0" />
  </g>
  <g
     inkscape:groupmode="layer"
     id="layer4"
     inkscape:label="blue"
     sodipodi:insensitive="true"
     transform="translate(-136.14215,-305.84416)">
    <path
       style="opacity:1;fill:#0000fe;fill-opacity:1;stroke:none;stroke-width:0.3583068;stroke-miterlimit:4;stroke-dasharray:none;stroke-opacity:1"
       d="m 347.47323,726.80789 c 11.48807,-39.69791 27.2998,-73.21449 47.24595,-100.14863 24.76779,-33.445 56.45242,-57.78502 99.82732,-76.68699 8.45091,-3.68275 9.21591,-3.96049 27.95388,-10.14889 12.39734,-4.09433 27.22328,-9.39814 39.12367,-13.99603 l 2.38939,-0.92317 -0.16109,2.76561 c -1.01718,17.46363 -2.68771,29.00967 -6.29225,43.48958 -12.89992,51.82064 -44.91836,97.18817 -89.53395,126.86239 -22.11366,14.70799 -45.94591,24.85621 -71.85581,30.5976 -13.69323,3.03429 -26.0103,4.48817 -40.5649,4.78818 l -10.10234,0.20825 1.97013,-6.8079 z"
       id="path4762"
       inkscape:connector-curvature="0" />
    <path
       style="opacity:1;fill:#0000fe;fill-opacity:1;stroke:none;stroke-width:0.35714287;stroke-miterlimit:4;stroke-dasharray:none;stroke-opacity:1"
       d="m 338.55954,733.26737 c -51.46085,-3.01558 -100.14129,-24.54431 -137.18575,-60.66985 -36.99297,-36.07534 -59.28097,-82.83783 -63.98664,-134.25049 -0.29854,-3.26182 -0.64896,-9.8503 -0.77873,-14.64111 l -0.2359,-8.71052 10.77346,5.16575 c 51.35621,24.62468 97.53929,38.97869 148.08465,46.02569 3.60732,0.50293 7.0112,0.91691 7.5642,0.91992 0.55299,0.003 1.20033,0.12913 1.43854,0.2802 0.26899,0.17063 0.6481,2.5858 1.00059,6.37436 4.66159,50.10427 17.17141,101.95562 36.88768,152.89383 1.40871,3.6395 2.5613,6.67217 2.5613,6.73928 0,0.12766 -2.75067,0.0705 -6.1234,-0.12706 z"
       id="path4764"
       inkscape:connector-curvature="0" />
  </g>
  <g
     inkscape:groupmode="layer"
     id="layer2"
     inkscape:label="black"
     sodipodi:insensitive="true"
     transform="translate(-136.14215,-305.84416)">
    <ellipse
       style="opacity:1;fill:#000000;fill-opacity:0;stroke:#000000;stroke-width:0.97299999;stroke-linejoin:miter;stroke-miterlimit:4;stroke-dasharray:none;stroke-opacity:1"
       id="path4735"
       ry="213.65585"
       rx="213.65587"
       cy="519.98651"
       cx="350.28494" />
    <path
       style="fill:none;fill-rule:evenodd;stroke:#000000;stroke-width:1;stroke-linecap:butt;stroke-linejoin:miter;stroke-miterlimit:4;stroke-dasharray:none;stroke-dashoffset:0;stroke-opacity:1"
       d="m 564.17019,525.06255 c -129.6061,50.60516 -266.11758,72.43792 -427.7996,-10.6066"
       id="path4745"
       inkscape:connector-curvature="0"
       sodipodi:nodetypes="cc" />
    <path
       style="fill:none;fill-rule:evenodd;stroke:#000000;stroke-width:1;stroke-linecap:butt;stroke-linejoin:miter;stroke-miterlimit:4;stroke-dasharray:none;stroke-dashoffset:0;stroke-opacity:1"
       d="m 353.75871,306.43402 c -61.71369,133.29355 -69.85134,274.82957 -9.04416,426.97249"
       id="path4747"
       inkscape:connector-curvature="0"
       sodipodi:nodetypes="cc" />
    <path
       style="display:inline;fill:none;fill-rule:evenodd;stroke:#000000;stroke-width:1px;stroke-linecap:butt;stroke-linejoin:miter;stroke-opacity:1"
       d="m 351.08014,391.07688 c 96.77624,10.2654 125.4535,66.8662 130.35714,139.64286 -47.95835,15.54387 -100.50142,21.34519 -156.07143,20.71428 0.63998,-54.14207 3.50022,-108.09108 25.71429,-160.35714 z"
       id="path4743"
       inkscape:connector-curvature="0"
       sodipodi:nodetypes="cccc" />
  </g>
  <g
     inkscape:groupmode="layer"
     id="layer5"
     inkscape:label="black bold"
     style="display:inline"
     sodipodi:insensitive="true"
     transform="translate(-136.14215,-305.84416)">
    <path
       style="fill:none;fill-rule:evenodd;stroke:#000000;stroke-width:2.98134017;stroke-linecap:butt;stroke-linejoin:miter;stroke-miterlimit:4;stroke-dasharray:none;stroke-opacity:1"
       d="m 354.18349,307.43972 c -41.60658,90.66509 -55.26565,176.40574 -48.59398,258.56405 80.41186,10.40488 166.69393,-6.26386 257.04359,-41.69245 5.11693,-103.81549 -78.57066,-215.64429 -208.44961,-216.8716 z"
       id="path4813"
       inkscape:connector-curvature="0"
       sodipodi:nodetypes="cccc" />
  </g>
</svg>
